<svg width="201" height="213" viewBox="0 0 201 213" fill="none" xmlns="http://www.w3.org/2000/svg">
<path d="M78.2253 137.097C62.3406 133.339 53.675 127.154 43.7288 114.211C33.7825 101.268 28.602 85.2924 29.0602 68.9758C29.5184 52.6591 35.5873 36.9992 46.2442 24.635C56.9011 12.2708 71.4944 3.95818 87.565 1.09804C103.636 -1.76209 120.201 1.00509 134.469 8.93326C148.738 16.8614 159.837 29.4659 165.896 44.6225C171.956 59.7792 172.606 76.5614 167.736 92.1411C162.866 107.721 154.032 127.419 131.451 131.452L120.161 116.129C129.69 109.824 137.096 112.097 147.415 85.7891C150.824 74.8833 150.369 63.1358 146.128 52.5261C141.886 41.9165 134.116 33.0934 124.128 27.5436C114.141 21.9939 102.545 20.0569 91.2955 22.059C80.0461 24.0611 69.8308 29.8799 62.3709 38.5348C54.9111 47.1898 50.6629 58.1517 50.3421 69.5734C50.0214 80.995 53.6478 92.1781 60.6101 101.238C67.5725 110.298 67.1059 110.273 78.2252 112.903L78.2253 137.097Z" fill="white"/>
<path d="M123.773 59.5738V70.9428H110.955V107.799C110.955 110.214 111.414 111.88 112.333 112.796C113.344 113.712 115.136 114.17 117.708 114.17C119.822 114.17 124.918 113.384 128.225 111.885C128.501 111.719 128.848 112.986 129.032 112.903L145.161 125.555C139.372 128.137 140.322 131.536 121.129 134.022C102.5 136.434 92.7415 122.425 92.7415 112.097L91.935 70.9428V48.5795L110.955 38.7096V59.5738H123.773Z" fill="white"/>
<path d="M23.071 163.465C23.7247 163.465 24.2237 163.602 24.5677 163.877C24.9462 164.153 25.1355 164.531 25.1355 165.013C25.1355 165.151 25.1011 165.391 25.0323 165.736C24.5849 167.249 23.5527 168.006 21.9355 168.006H18.9419L15.071 180.755C14.8989 181.271 14.8129 181.804 14.8129 182.355C14.8129 182.974 14.9849 183.404 15.329 183.645C15.6731 183.886 16.1548 184.006 16.7742 184.006C17.3247 184.006 18.0129 183.938 18.8387 183.8C19.2516 183.697 19.6129 183.645 19.9226 183.645C20.1634 183.645 20.3355 183.731 20.4387 183.903C20.5763 184.041 20.6452 184.23 20.6452 184.471C20.6796 185.159 20.1634 186.002 19.0968 187C18.0645 187.963 16.6538 188.806 14.8645 189.529C13.0753 190.217 11.0968 190.561 8.92903 190.561C6.58925 190.561 4.71398 190.028 3.30323 188.961C1.89247 187.895 1.1871 186.432 1.1871 184.574C1.1871 183.714 1.32473 182.888 1.6 182.097L4.90323 171.877C5.07527 171.292 5.16129 170.828 5.16129 170.484C5.16129 169.796 4.98925 169.211 4.64516 168.729C4.33548 168.247 3.88817 167.748 3.30323 167.232C2.7871 166.751 2.42581 166.355 2.21936 166.045C2.0129 165.701 1.96129 165.305 2.06452 164.858C2.20215 164.411 2.49462 164.067 2.94194 163.826C3.38925 163.585 4.09462 163.465 5.05807 163.465H7.94839L11.2 160.213C12.3355 159.077 13.3677 158.286 14.2968 157.839C15.2602 157.391 16.4989 157.168 18.0129 157.168C20.1806 157.168 21.2645 157.994 21.2645 159.645C21.2645 160.161 21.1957 160.643 21.0581 161.09L20.3355 163.465H23.071ZM45.4548 162.794C47.3817 162.794 48.9129 163.379 50.0484 164.548C51.2183 165.718 51.8032 167.163 51.8032 168.884C51.8032 169.538 51.7344 170.14 51.5968 170.69C51.2527 172.101 50.5989 173.185 49.6355 173.942C48.672 174.699 47.5194 175.077 46.1774 175.077C44.8699 175.077 43.872 174.768 43.1839 174.148C42.5301 173.529 41.9452 172.703 41.429 171.671C41.1538 171.086 40.8957 170.656 40.6548 170.381C40.414 170.105 40.1387 169.968 39.829 169.968C39.485 169.968 39.1753 170.105 38.9 170.381C38.6591 170.656 38.4355 171.138 38.229 171.826L34.2548 184.729C34.186 184.901 34.1516 185.159 34.1516 185.503C34.1516 185.951 34.272 186.329 34.5129 186.639C34.7882 186.914 35.1495 187.189 35.5968 187.465C36.0097 187.74 36.285 187.963 36.4226 188.136C36.5602 188.308 36.6118 188.531 36.5774 188.806C36.5086 189.254 36.2505 189.581 35.8032 189.787C35.3903 189.994 34.6677 190.097 33.6355 190.097H20.4226C19.528 190.097 18.8914 189.959 18.5129 189.684C18.1 189.374 17.9452 188.979 18.0484 188.497C18.186 188.084 18.5473 187.723 19.1323 187.413C19.6484 187.138 20.0785 186.811 20.4226 186.432C20.7667 186.054 21.0591 185.452 21.3 184.626L25.8936 169.71C25.9624 169.538 25.9968 169.297 25.9968 168.987C25.9968 168.609 25.9108 168.316 25.7387 168.11C25.6011 167.903 25.3602 167.645 25.0161 167.336C24.672 167.06 24.4312 166.819 24.2936 166.613C24.1559 166.406 24.1387 166.131 24.2419 165.787C24.4484 164.996 25.5323 164.308 27.4936 163.723C29.4548 163.103 31.5022 162.794 33.6355 162.794C35.0462 162.794 36.2161 163.12 37.1452 163.774C38.0742 164.394 38.6763 165.288 38.9516 166.458C40.6032 164.015 42.771 162.794 45.4548 162.794ZM79.3516 182.974C79.2828 183.249 79.2484 183.456 79.2484 183.594C79.2484 183.834 79.3 184.024 79.4032 184.161C79.5409 184.299 79.7129 184.368 79.9194 184.368C80.3323 184.368 80.6764 184.196 80.9516 183.852C81.2613 183.473 81.4678 183.284 81.571 183.284C81.743 183.284 81.8807 183.404 81.9839 183.645C82.1215 183.852 82.1903 184.11 82.1903 184.419C82.2247 185.383 81.8807 186.346 81.1581 187.31C80.4355 188.239 79.4204 189.013 78.1129 189.632C76.8054 190.252 75.343 190.561 73.7258 190.561C71.6957 190.561 70.0785 190.148 68.8742 189.323C67.6699 188.497 66.8957 187.413 66.5516 186.071C65.3129 187.447 63.9366 188.497 62.4226 189.219C60.943 189.908 59.429 190.252 57.8807 190.252C55.472 190.252 53.4419 189.667 51.7903 188.497C50.1731 187.293 49.3645 185.624 49.3645 183.49C49.3645 182.527 49.5366 181.529 49.8807 180.497L53.1839 169.71C53.2871 169.4 53.3387 169.142 53.3387 168.936C53.3387 168.557 53.2527 168.265 53.0807 168.058C52.9086 167.817 52.6505 167.576 52.3065 167.336C51.9624 167.06 51.7215 166.819 51.5839 166.613C51.4462 166.406 51.429 166.131 51.5323 165.787C51.7387 164.996 52.8226 164.308 54.7839 163.723C56.7452 163.103 58.7925 162.794 60.9258 162.794C62.9215 162.794 64.3839 163.172 65.3129 163.929C66.2419 164.686 66.7065 165.718 66.7065 167.026C66.7065 167.817 66.586 168.574 66.3452 169.297L63.0936 180.032C62.9559 180.411 62.8871 180.772 62.8871 181.116C62.8871 181.598 63.0247 181.959 63.3 182.2C63.5753 182.441 63.9366 182.561 64.3839 182.561C65.0376 182.561 65.571 182.372 65.9839 181.994C66.3968 181.615 66.8097 180.979 67.2226 180.084L70.371 169.71C70.4742 169.4 70.5258 169.142 70.5258 168.936C70.5258 168.557 70.4398 168.265 70.2677 168.058C70.0957 167.817 69.8548 167.576 69.5452 167.336C69.2011 167.06 68.9602 166.819 68.8226 166.613C68.685 166.406 68.6677 166.131 68.771 165.787C68.943 164.996 70.0097 164.308 71.971 163.723C73.9323 163.103 75.9796 162.794 78.1129 162.794C80.1086 162.794 81.571 163.172 82.5 163.929C83.4635 164.686 83.9452 165.701 83.9452 166.974C83.9452 167.628 83.8075 168.402 83.5323 169.297L79.3516 182.974ZM98.4766 151.955C100.472 151.955 101.935 152.333 102.864 153.09C103.827 153.847 104.309 154.88 104.309 156.187C104.309 156.944 104.188 157.684 103.948 158.406L95.8444 184.729C95.7411 185.142 95.6895 185.503 95.6895 185.813C95.6895 186.26 95.7756 186.622 95.9476 186.897C96.1196 187.138 96.3605 187.379 96.6702 187.619C96.911 187.86 97.0831 188.067 97.1863 188.239C97.2895 188.376 97.3067 188.566 97.2379 188.806C97.0659 189.254 96.7218 189.581 96.2057 189.787C95.6895 189.994 94.8981 190.097 93.8315 190.097H82.0637C81.1691 190.097 80.5153 189.959 80.1024 189.684C79.6895 189.374 79.5519 188.979 79.6895 188.497C79.8272 188.084 80.1885 187.723 80.7734 187.413C81.2895 187.138 81.7196 186.811 82.0637 186.432C82.4078 186.054 82.7003 185.452 82.9411 184.626L90.7863 158.871C90.8895 158.561 90.9411 158.303 90.9411 158.097C90.9411 157.718 90.8379 157.409 90.6315 157.168C90.4594 156.927 90.2186 156.686 89.9089 156.445C89.5648 156.17 89.3067 155.929 89.1347 155.723C88.9971 155.516 88.9799 155.241 89.0831 154.897C89.2895 154.105 90.3734 153.417 92.3347 152.832C94.296 152.247 96.3433 151.955 98.4766 151.955ZM126.204 162.794C127.718 162.794 128.922 163.413 129.817 164.652C130.746 165.856 131.21 167.508 131.21 169.606C131.21 171.43 130.883 173.391 130.229 175.49C128.956 179.723 126.909 183.714 124.088 187.465C121.3 191.215 118.083 194.226 114.436 196.497C110.823 198.768 107.21 199.903 103.597 199.903C101.808 199.903 100.26 199.594 98.952 198.974C97.6789 198.355 96.7155 197.529 96.0617 196.497C95.3735 195.465 95.0294 194.363 95.0294 193.194C95.0294 192.677 95.1155 192.11 95.2875 191.49C95.5972 190.527 96.1133 189.787 96.8359 189.271C97.5585 188.755 98.4187 188.497 99.4165 188.497C100.999 188.497 102.29 189.03 103.288 190.097C104.32 191.198 104.974 192.695 105.249 194.587C107.451 194.484 109.481 193.538 111.339 191.748C109.584 191.439 108.277 190.854 107.417 189.994C106.591 189.099 106.023 187.723 105.713 185.865L103.649 173.219C103.546 172.566 103.391 172.118 103.184 171.877C103.012 171.602 102.771 171.465 102.462 171.465C102.221 171.465 101.928 171.585 101.584 171.826C101.275 172.067 101.051 172.187 100.913 172.187C100.638 172.187 100.5 171.895 100.5 171.31C100.5 170.828 100.586 170.312 100.758 169.761C101.378 167.8 102.531 166.148 104.217 164.806C105.903 163.43 107.864 162.742 110.1 162.742C112.303 162.742 113.92 163.396 114.952 164.703C116.019 166.011 116.707 168.024 117.017 170.742L118.565 182.097C118.668 182.957 118.978 183.387 119.494 183.387C120.113 183.387 120.836 182.837 121.662 181.736C122.488 180.6 123.296 179 124.088 176.936C123.055 176.006 122.264 174.94 121.713 173.736C121.163 172.531 120.888 171.241 120.888 169.865C120.888 168.798 121.025 167.834 121.3 166.974C121.713 165.598 122.35 164.566 123.21 163.877C124.105 163.155 125.103 162.794 126.204 162.794ZM160.739 182.974C160.67 183.112 160.635 183.318 160.635 183.594C160.635 183.834 160.687 184.024 160.79 184.161C160.928 184.299 161.1 184.368 161.306 184.368C161.719 184.368 162.063 184.196 162.339 183.852C162.648 183.473 162.855 183.284 162.958 183.284C163.13 183.284 163.268 183.404 163.371 183.645C163.474 183.852 163.526 184.11 163.526 184.419C163.56 185.417 163.233 186.398 162.545 187.361C161.857 188.29 160.842 189.065 159.5 189.684C158.192 190.269 156.61 190.561 154.752 190.561C152.481 190.561 150.674 190.045 149.332 189.013C147.99 187.946 147.302 186.536 147.268 184.781C147.268 183.508 147.577 182.08 148.197 180.497L151.035 173.065C151.208 172.617 151.294 172.256 151.294 171.981C151.294 171.533 151.139 171.189 150.829 170.948C150.554 170.673 150.21 170.536 149.797 170.536C149.04 170.536 148.317 170.897 147.629 171.619C146.941 172.308 146.442 173.168 146.132 174.2L142.932 184.729C142.795 185.108 142.726 185.469 142.726 185.813C142.726 186.226 142.812 186.57 142.984 186.845C143.156 187.086 143.397 187.344 143.706 187.619C143.947 187.826 144.119 188.015 144.223 188.187C144.326 188.359 144.343 188.566 144.274 188.806C144.137 189.254 143.81 189.581 143.294 189.787C142.777 189.994 141.969 190.097 140.868 190.097H129.1C128.205 190.097 127.569 189.959 127.19 189.684C126.777 189.374 126.623 188.979 126.726 188.497C126.863 188.084 127.225 187.723 127.81 187.413C128.326 187.138 128.756 186.811 129.1 186.432C129.444 186.054 129.737 185.452 129.977 184.626L134.571 169.71C134.64 169.538 134.674 169.297 134.674 168.987C134.674 168.609 134.588 168.316 134.416 168.11C134.279 167.903 134.038 167.645 133.694 167.336C133.349 167.06 133.109 166.819 132.971 166.613C132.833 166.406 132.816 166.131 132.919 165.787C133.126 164.996 134.21 164.308 136.171 163.723C138.132 163.103 140.18 162.794 142.313 162.794C144.033 162.794 145.392 163.275 146.39 164.239C147.388 165.168 147.835 166.475 147.732 168.161C149.143 166.131 150.64 164.738 152.223 163.981C153.805 163.189 155.526 162.794 157.384 162.794C159.483 162.794 161.169 163.43 162.442 164.703C163.749 165.976 164.403 167.628 164.403 169.658C164.403 170.725 164.231 171.774 163.887 172.806L160.739 182.974ZM194.278 162.794C196.239 162.794 197.805 163.344 198.975 164.445C200.179 165.512 200.781 166.819 200.781 168.368C200.781 170.019 200.282 171.31 199.284 172.239C198.286 173.168 196.979 173.632 195.362 173.632C193.917 173.632 192.798 173.271 192.007 172.548C191.215 171.791 190.837 170.948 190.871 170.019C190.527 169.951 190.235 170.088 189.994 170.432C189.753 170.776 189.495 171.447 189.22 172.445C189.048 173.099 188.721 173.701 188.239 174.252C190.579 174.424 192.317 174.957 193.452 175.852C194.588 176.746 195.155 177.899 195.155 179.31C195.155 179.998 195.035 180.686 194.794 181.374L194.381 182.974C194.312 183.146 194.278 183.37 194.278 183.645C194.278 184.127 194.501 184.368 194.949 184.368C195.362 184.368 195.706 184.196 195.981 183.852C196.291 183.473 196.497 183.284 196.6 183.284C196.772 183.284 196.91 183.404 197.013 183.645C197.117 183.852 197.168 184.11 197.168 184.419C197.203 185.417 196.893 186.398 196.239 187.361C195.62 188.29 194.656 189.065 193.349 189.684C192.076 190.269 190.527 190.561 188.704 190.561C186.501 190.561 184.661 190.011 183.181 188.91C181.736 187.809 181.013 186.363 181.013 184.574C181.013 183.92 181.151 183.181 181.426 182.355L182.407 179.774C182.579 179.155 182.665 178.708 182.665 178.432C182.665 177.985 182.51 177.658 182.2 177.452C181.925 177.245 181.478 177.142 180.858 177.142H179.826L177.504 184.729C177.4 185.142 177.349 185.503 177.349 185.813C177.349 186.26 177.435 186.622 177.607 186.897C177.779 187.138 178.02 187.379 178.329 187.619C178.57 187.86 178.742 188.067 178.846 188.239C178.949 188.376 178.966 188.566 178.897 188.806C178.725 189.254 178.381 189.581 177.865 189.787C177.349 189.994 176.557 190.097 175.491 190.097H163.723C162.828 190.097 162.175 189.959 161.762 189.684C161.349 189.374 161.211 188.979 161.349 188.497C161.486 188.084 161.848 187.723 162.433 187.413C162.949 187.138 163.379 186.811 163.723 186.432C164.067 186.054 164.36 185.452 164.6 184.626L172.446 158.871C172.549 158.561 172.6 158.303 172.6 158.097C172.6 157.718 172.497 157.409 172.291 157.168C172.119 156.927 171.878 156.686 171.568 156.445C171.224 156.17 170.966 155.929 170.794 155.723C170.656 155.516 170.639 155.241 170.742 154.897C170.949 154.105 172.033 153.417 173.994 152.832C175.955 152.247 178.003 151.955 180.136 151.955C182.132 151.955 183.594 152.333 184.523 153.09C185.452 153.813 185.917 154.828 185.917 156.136C185.917 156.927 185.796 157.684 185.555 158.406L181.065 173.065H182.768C183.456 173.065 184.007 172.858 184.42 172.445C184.867 172.032 185.211 171.43 185.452 170.639C186.312 168.092 187.431 166.148 188.807 164.806C190.183 163.465 192.007 162.794 194.278 162.794Z" fill="white"/>
</svg>
