<svg width="164" height="222" viewBox="0 0 164 222" fill="none" xmlns="http://www.w3.org/2000/svg">
<path d="M56.8404 159C38.4863 154.642 28.4736 147.469 16.9812 132.458C5.48876 117.447 -0.497092 98.9192 0.0323334 79.9957C0.561759 61.0722 7.57409 42.9104 19.8876 28.5708C32.2012 14.2312 49.0632 4.59056 67.6319 1.27347C86.2007 -2.04361 105.341 1.16567 121.828 10.3605C138.314 19.5553 151.139 34.1735 158.14 51.7517C165.142 69.3298 165.892 88.7933 160.265 106.862C154.638 124.931 144.431 147.776 118.34 152.453L105.295 134.682C116.305 127.37 124.863 130.006 136.786 99.4952C140.725 86.8471 140.199 73.2227 135.298 60.918C130.397 48.6133 121.42 38.3805 109.879 31.9441C98.3388 25.5078 84.9405 23.2613 71.9424 25.5832C58.9442 27.9052 47.1408 34.6537 38.5214 44.6914C29.9019 54.7291 24.9932 67.4424 24.6226 80.6888C24.252 93.9352 28.4421 106.905 36.4868 117.412C44.5315 127.92 43.9924 127.891 56.8403 130.941L56.8404 159Z" fill="#00028C"/>
<path d="M109.468 69.0916V82.277H94.658V125.021C94.658 127.822 95.1888 129.754 96.2505 130.817C97.4183 131.879 99.4886 132.411 102.461 132.411C104.903 132.411 110.791 131.499 114.613 129.76C114.932 129.567 115.333 131.038 115.545 130.941L134.181 145.615C127.493 148.609 128.59 152.551 106.413 155.434C84.8881 158.231 73.6131 141.984 73.6131 130.006L72.6813 82.277V56.3408L94.658 44.8941V69.0916H109.468Z" fill="#00028C"/>
<path d="M34.304 191.488C34.7093 191.488 35.0187 191.573 35.232 191.744C35.4667 191.915 35.584 192.149 35.584 192.448C35.584 192.533 35.5627 192.683 35.52 192.896C35.2427 193.835 34.6027 194.304 33.6 194.304H31.744L29.344 202.208C29.2373 202.528 29.184 202.859 29.184 203.2C29.184 203.584 29.2907 203.851 29.504 204C29.7173 204.149 30.016 204.224 30.4 204.224C30.7413 204.224 31.168 204.181 31.68 204.096C31.936 204.032 32.16 204 32.352 204C32.5013 204 32.608 204.053 32.672 204.16C32.7573 204.245 32.8 204.363 32.8 204.512C32.8213 204.939 32.5013 205.461 31.84 206.08C31.2 206.677 30.3253 207.2 29.216 207.648C28.1067 208.075 26.88 208.288 25.536 208.288C24.0853 208.288 22.9227 207.957 22.048 207.296C21.1733 206.635 20.736 205.728 20.736 204.576C20.736 204.043 20.8213 203.531 20.992 203.04L23.04 196.704C23.1467 196.341 23.2 196.053 23.2 195.84C23.2 195.413 23.0933 195.051 22.88 194.752C22.688 194.453 22.4107 194.144 22.048 193.824C21.728 193.525 21.504 193.28 21.376 193.088C21.248 192.875 21.216 192.629 21.28 192.352C21.3653 192.075 21.5467 191.861 21.824 191.712C22.1013 191.563 22.5387 191.488 23.136 191.488H24.928L26.944 189.472C27.648 188.768 28.288 188.277 28.864 188C29.4613 187.723 30.2293 187.584 31.168 187.584C32.512 187.584 33.184 188.096 33.184 189.12C33.184 189.44 33.1413 189.739 33.056 190.016L32.608 191.488H34.304ZM48.182 191.072C49.3767 191.072 50.326 191.435 51.03 192.16C51.7553 192.885 52.118 193.781 52.118 194.848C52.118 195.253 52.0753 195.627 51.99 195.968C51.7767 196.843 51.3713 197.515 50.774 197.984C50.1767 198.453 49.462 198.688 48.63 198.688C47.8193 198.688 47.2007 198.496 46.774 198.112C46.3687 197.728 46.006 197.216 45.686 196.576C45.5153 196.213 45.3553 195.947 45.206 195.776C45.0567 195.605 44.886 195.52 44.694 195.52C44.4807 195.52 44.2887 195.605 44.118 195.776C43.9687 195.947 43.83 196.245 43.702 196.672L41.238 204.672C41.1953 204.779 41.174 204.939 41.174 205.152C41.174 205.429 41.2487 205.664 41.398 205.856C41.5687 206.027 41.7927 206.197 42.07 206.368C42.326 206.539 42.4967 206.677 42.582 206.784C42.6673 206.891 42.6993 207.029 42.678 207.2C42.6353 207.477 42.4753 207.68 42.198 207.808C41.942 207.936 41.494 208 40.854 208H32.662C32.1073 208 31.7127 207.915 31.478 207.744C31.222 207.552 31.126 207.307 31.19 207.008C31.2753 206.752 31.4993 206.528 31.862 206.336C32.182 206.165 32.4487 205.963 32.662 205.728C32.8753 205.493 33.0567 205.12 33.206 204.608L36.054 195.36C36.0967 195.253 36.118 195.104 36.118 194.912C36.118 194.677 36.0647 194.496 35.958 194.368C35.8727 194.24 35.7233 194.08 35.51 193.888C35.2967 193.717 35.1473 193.568 35.062 193.44C34.9767 193.312 34.966 193.141 35.03 192.928C35.158 192.437 35.83 192.011 37.046 191.648C38.262 191.264 39.5313 191.072 40.854 191.072C41.7287 191.072 42.454 191.275 43.03 191.68C43.606 192.064 43.9793 192.619 44.15 193.344C45.174 191.829 46.518 191.072 48.182 191.072ZM69.198 203.584C69.1553 203.755 69.134 203.883 69.134 203.968C69.134 204.117 69.166 204.235 69.23 204.32C69.3153 204.405 69.422 204.448 69.55 204.448C69.806 204.448 70.0193 204.341 70.19 204.128C70.382 203.893 70.51 203.776 70.574 203.776C70.6807 203.776 70.766 203.851 70.83 204C70.9153 204.128 70.958 204.288 70.958 204.48C70.9793 205.077 70.766 205.675 70.318 206.272C69.87 206.848 69.2407 207.328 68.43 207.712C67.6193 208.096 66.7127 208.288 65.71 208.288C64.4513 208.288 63.4487 208.032 62.702 207.52C61.9553 207.008 61.4753 206.336 61.262 205.504C60.494 206.357 59.6407 207.008 58.702 207.456C57.7847 207.883 56.846 208.096 55.886 208.096C54.3927 208.096 53.134 207.733 52.11 207.008C51.1073 206.261 50.606 205.227 50.606 203.904C50.606 203.307 50.7127 202.688 50.926 202.048L52.974 195.36C53.038 195.168 53.07 195.008 53.07 194.88C53.07 194.645 53.0167 194.464 52.91 194.336C52.8033 194.187 52.6433 194.037 52.43 193.888C52.2167 193.717 52.0673 193.568 51.982 193.44C51.8967 193.312 51.886 193.141 51.95 192.928C52.078 192.437 52.75 192.011 53.966 191.648C55.182 191.264 56.4513 191.072 57.774 191.072C59.0113 191.072 59.918 191.307 60.494 191.776C61.07 192.245 61.358 192.885 61.358 193.696C61.358 194.187 61.2833 194.656 61.134 195.104L59.118 201.76C59.0327 201.995 58.99 202.219 58.99 202.432C58.99 202.731 59.0753 202.955 59.246 203.104C59.4167 203.253 59.6407 203.328 59.918 203.328C60.3233 203.328 60.654 203.211 60.91 202.976C61.166 202.741 61.422 202.347 61.678 201.792L63.63 195.36C63.694 195.168 63.726 195.008 63.726 194.88C63.726 194.645 63.6727 194.464 63.566 194.336C63.4593 194.187 63.31 194.037 63.118 193.888C62.9047 193.717 62.7553 193.568 62.67 193.44C62.5847 193.312 62.574 193.141 62.638 192.928C62.7447 192.437 63.406 192.011 64.622 191.648C65.838 191.264 67.1073 191.072 68.43 191.072C69.6673 191.072 70.574 191.307 71.15 191.776C71.7473 192.245 72.046 192.875 72.046 193.664C72.046 194.069 71.9607 194.549 71.79 195.104L69.198 203.584ZM81.0555 184.352C82.2928 184.352 83.1995 184.587 83.7755 185.056C84.3728 185.525 84.6715 186.165 84.6715 186.976C84.6715 187.445 84.5968 187.904 84.4475 188.352L79.4235 204.672C79.3595 204.928 79.3275 205.152 79.3275 205.344C79.3275 205.621 79.3808 205.845 79.4875 206.016C79.5942 206.165 79.7435 206.315 79.9355 206.464C80.0848 206.613 80.1915 206.741 80.2555 206.848C80.3195 206.933 80.3302 207.051 80.2875 207.2C80.1808 207.477 79.9675 207.68 79.6475 207.808C79.3275 207.936 78.8368 208 78.1755 208H70.8795C70.3248 208 69.9195 207.915 69.6635 207.744C69.4075 207.552 69.3222 207.307 69.4075 207.008C69.4928 206.752 69.7168 206.528 70.0795 206.336C70.3995 206.165 70.6662 205.963 70.8795 205.728C71.0928 205.493 71.2742 205.12 71.4235 204.608L76.2875 188.64C76.3515 188.448 76.3835 188.288 76.3835 188.16C76.3835 187.925 76.3195 187.733 76.1915 187.584C76.0848 187.435 75.9355 187.285 75.7435 187.136C75.5302 186.965 75.3702 186.816 75.2635 186.688C75.1782 186.56 75.1675 186.389 75.2315 186.176C75.3595 185.685 76.0315 185.259 77.2475 184.896C78.4635 184.533 79.7328 184.352 81.0555 184.352ZM98.2463 191.072C99.1849 191.072 99.9316 191.456 100.486 192.224C101.062 192.971 101.35 193.995 101.35 195.296C101.35 196.427 101.148 197.643 100.742 198.944C99.9529 201.568 98.6836 204.043 96.9343 206.368C95.2063 208.693 93.2116 210.56 90.9503 211.968C88.7103 213.376 86.4703 214.08 84.2303 214.08C83.1209 214.08 82.1609 213.888 81.3503 213.504C80.5609 213.12 79.9636 212.608 79.5583 211.968C79.1316 211.328 78.9183 210.645 78.9183 209.92C78.9183 209.6 78.9716 209.248 79.0783 208.864C79.2703 208.267 79.5903 207.808 80.0383 207.488C80.4863 207.168 81.0196 207.008 81.6383 207.008C82.6196 207.008 83.4196 207.339 84.0383 208C84.6783 208.683 85.0836 209.611 85.2543 210.784C86.6196 210.72 87.8783 210.133 89.0303 209.024C87.9423 208.832 87.1316 208.469 86.5983 207.936C86.0863 207.381 85.7343 206.528 85.5423 205.376L84.2623 197.536C84.1983 197.131 84.1023 196.853 83.9743 196.704C83.8676 196.533 83.7183 196.448 83.5263 196.448C83.3769 196.448 83.1956 196.523 82.9823 196.672C82.7903 196.821 82.6516 196.896 82.5663 196.896C82.3956 196.896 82.3103 196.715 82.3103 196.352C82.3103 196.053 82.3636 195.733 82.4703 195.392C82.8543 194.176 83.5689 193.152 84.6143 192.32C85.6596 191.467 86.8756 191.04 88.2623 191.04C89.6276 191.04 90.6303 191.445 91.2703 192.256C91.9316 193.067 92.3583 194.315 92.5503 196L93.5103 203.04C93.5743 203.573 93.7663 203.84 94.0863 203.84C94.4703 203.84 94.9183 203.499 95.4303 202.816C95.9423 202.112 96.4436 201.12 96.9343 199.84C96.2943 199.264 95.8036 198.603 95.4623 197.856C95.1209 197.109 94.9503 196.309 94.9503 195.456C94.9503 194.795 95.0356 194.197 95.2063 193.664C95.4623 192.811 95.8569 192.171 96.3903 191.744C96.9449 191.296 97.5636 191.072 98.2463 191.072ZM119.658 203.584C119.615 203.669 119.594 203.797 119.594 203.968C119.594 204.117 119.626 204.235 119.69 204.32C119.775 204.405 119.882 204.448 120.01 204.448C120.266 204.448 120.479 204.341 120.65 204.128C120.842 203.893 120.97 203.776 121.034 203.776C121.141 203.776 121.226 203.851 121.29 204C121.354 204.128 121.386 204.288 121.386 204.48C121.407 205.099 121.205 205.707 120.778 206.304C120.351 206.88 119.722 207.36 118.89 207.744C118.079 208.107 117.098 208.288 115.946 208.288C114.538 208.288 113.418 207.968 112.586 207.328C111.754 206.667 111.327 205.792 111.306 204.704C111.306 203.915 111.498 203.029 111.882 202.048L113.642 197.44C113.749 197.163 113.802 196.939 113.802 196.768C113.802 196.491 113.706 196.277 113.514 196.128C113.343 195.957 113.13 195.872 112.874 195.872C112.405 195.872 111.957 196.096 111.53 196.544C111.103 196.971 110.794 197.504 110.602 198.144L108.618 204.672C108.533 204.907 108.49 205.131 108.49 205.344C108.49 205.6 108.543 205.813 108.65 205.984C108.757 206.133 108.906 206.293 109.098 206.464C109.247 206.592 109.354 206.709 109.418 206.816C109.482 206.923 109.493 207.051 109.45 207.2C109.365 207.477 109.162 207.68 108.842 207.808C108.522 207.936 108.021 208 107.338 208H100.042C99.4873 208 99.0927 207.915 98.858 207.744C98.602 207.552 98.506 207.307 98.57 207.008C98.6553 206.752 98.8793 206.528 99.242 206.336C99.562 206.165 99.8287 205.963 100.042 205.728C100.255 205.493 100.437 205.12 100.586 204.608L103.434 195.36C103.477 195.253 103.498 195.104 103.498 194.912C103.498 194.677 103.445 194.496 103.338 194.368C103.253 194.24 103.103 194.08 102.89 193.888C102.677 193.717 102.527 193.568 102.442 193.44C102.357 193.312 102.346 193.141 102.41 192.928C102.538 192.437 103.21 192.011 104.426 191.648C105.642 191.264 106.911 191.072 108.234 191.072C109.301 191.072 110.143 191.371 110.762 191.968C111.381 192.544 111.658 193.355 111.594 194.4C112.469 193.141 113.397 192.277 114.378 191.808C115.359 191.317 116.426 191.072 117.578 191.072C118.879 191.072 119.925 191.467 120.714 192.256C121.525 193.045 121.93 194.069 121.93 195.328C121.93 195.989 121.823 196.64 121.61 197.28L119.658 203.584ZM140.452 191.072C141.668 191.072 142.639 191.413 143.364 192.096C144.111 192.757 144.484 193.568 144.484 194.528C144.484 195.552 144.175 196.352 143.556 196.928C142.938 197.504 142.127 197.792 141.124 197.792C140.228 197.792 139.535 197.568 139.044 197.12C138.554 196.651 138.319 196.128 138.34 195.552C138.127 195.509 137.946 195.595 137.796 195.808C137.647 196.021 137.487 196.437 137.316 197.056C137.21 197.461 137.007 197.835 136.708 198.176C138.159 198.283 139.236 198.613 139.94 199.168C140.644 199.723 140.996 200.437 140.996 201.312C140.996 201.739 140.922 202.165 140.772 202.592L140.516 203.584C140.474 203.691 140.452 203.829 140.452 204C140.452 204.299 140.591 204.448 140.868 204.448C141.124 204.448 141.338 204.341 141.508 204.128C141.7 203.893 141.828 203.776 141.892 203.776C141.999 203.776 142.084 203.851 142.148 204C142.212 204.128 142.244 204.288 142.244 204.48C142.266 205.099 142.074 205.707 141.668 206.304C141.284 206.88 140.687 207.36 139.876 207.744C139.087 208.107 138.127 208.288 136.996 208.288C135.631 208.288 134.49 207.947 133.572 207.264C132.676 206.581 132.228 205.685 132.228 204.576C132.228 204.171 132.314 203.712 132.484 203.2L133.092 201.6C133.199 201.216 133.252 200.939 133.252 200.768C133.252 200.491 133.156 200.288 132.964 200.16C132.794 200.032 132.516 199.968 132.132 199.968H131.492L130.052 204.672C129.988 204.928 129.956 205.152 129.956 205.344C129.956 205.621 130.01 205.845 130.116 206.016C130.223 206.165 130.372 206.315 130.564 206.464C130.714 206.613 130.82 206.741 130.884 206.848C130.948 206.933 130.959 207.051 130.916 207.2C130.81 207.477 130.596 207.68 130.276 207.808C129.956 207.936 129.466 208 128.804 208H121.508C120.954 208 120.548 207.915 120.292 207.744C120.036 207.552 119.951 207.307 120.036 207.008C120.122 206.752 120.346 206.528 120.708 206.336C121.028 206.165 121.295 205.963 121.508 205.728C121.722 205.493 121.903 205.12 122.052 204.608L126.916 188.64C126.98 188.448 127.012 188.288 127.012 188.16C127.012 187.925 126.948 187.733 126.82 187.584C126.714 187.435 126.564 187.285 126.372 187.136C126.159 186.965 125.999 186.816 125.892 186.688C125.807 186.56 125.796 186.389 125.86 186.176C125.988 185.685 126.66 185.259 127.876 184.896C129.092 184.533 130.362 184.352 131.684 184.352C132.922 184.352 133.828 184.587 134.404 185.056C134.98 185.504 135.268 186.133 135.268 186.944C135.268 187.435 135.194 187.904 135.044 188.352L132.26 197.44H133.316C133.743 197.44 134.084 197.312 134.34 197.056C134.618 196.8 134.831 196.427 134.98 195.936C135.514 194.357 136.207 193.152 137.06 192.32C137.914 191.488 139.044 191.072 140.452 191.072Z" fill="#00028C"/>
</svg>
